<?xml version="1.0" encoding="utf-8"?>
<!-- Generator: Adobe Illustrator 19.0.0, SVG Export Plug-In . SVG Version: 6.00 Build 0)  -->
<svg version="1.1" id="图层_1" xmlns="http://www.w3.org/2000/svg" xmlns:xlink="http://www.w3.org/1999/xlink" x="0px" y="0px"
	 viewBox="0 0 72 44" style="enable-background:new 0 0 72 44;" xml:space="preserve">
<style type="text/css">
	.st0{fill:#FFFFFF;}
</style>
<g id="XMLID_2_">
	<path id="XMLID_3_" class="st0" d="M33,16.7c-0.3,0.9-0.7,1.7-1.2,2.5h2.6v0.6h-4.1v0.7c0,0.6-0.1,1.2-0.2,1.7h5v0.6h-4.5
		c0.6,1.7,2.2,3.1,4.8,4l-0.4,0.6c-2.7-1.1-4.4-2.6-5-4.5c-0.2,0.8-0.5,1.5-1,2c-0.8,1-2.1,1.9-4,2.4l-0.4-0.6
		c1.8-0.6,3.1-1.4,3.9-2.4c0.3-0.5,0.6-1,0.8-1.7h-4.5v-0.6h4.6c0.1-0.5,0.2-1.1,0.2-1.7v-0.7h-4.1v-0.6h5.5
		c0.5-0.7,0.9-1.6,1.3-2.6L33,16.7z M29,18.7L28.5,19c-0.5-0.8-0.9-1.5-1.4-2.1l0.6-0.3C28.1,17.3,28.6,18,29,18.7z"/>
	<path id="XMLID_6_" class="st0" d="M46.5,17.1v0.6h-4v3.5h4.8v0.6h-4.8v4.4c0,0.7-0.4,1.1-1.1,1.1h-1.8l-0.1-0.6c0.6,0,1.2,0,1.8,0
		c0.5,0,0.7-0.2,0.7-0.7v-4.2h-5v-0.6h5v-3.5h-4.3v-0.6H46.5z"/>
</g>
</svg>
