<?xml version="1.0" encoding="utf-8"?>
<!-- Generator: Adobe Illustrator 19.0.0, SVG Export Plug-In . SVG Version: 6.00 Build 0)  -->
<svg version="1.1" id="图层_1" xmlns="http://www.w3.org/2000/svg" xmlns:xlink="http://www.w3.org/1999/xlink" x="0px" y="0px"
	 viewBox="0 0 72 44" style="enable-background:new 0 0 72 44;" xml:space="preserve">
<style type="text/css">
	.st0{fill:#FFFFFF;}
</style>
<g id="XMLID_2_">
	<path id="XMLID_3_" class="st0" d="M25,23.9c-0.8,1.9-1.7,3.5-2.8,4.8l-1.3-1c1.1-1.3,2-2.8,2.8-4.5L25,23.9z M22.8,15.6
		c0.4,0.1,0.8,0.1,1.2,0.1c3.7,0,6.7-0.4,9-1.1l0.7,1.3c-2.5,0.7-5.7,1-9.7,1.1c-0.2,1.4-0.5,2.6-0.7,3.7h4.2v-2.9H29v2.9h5.7v1.5
		H29v5.4c0,1.2-0.6,1.7-1.6,1.7h-2.2l-0.3-1.5c0.7,0.1,1.3,0.1,2,0.1c0.4,0,0.6-0.3,0.6-0.7v-5h-5.9C22.2,19.7,22.6,17.5,22.8,15.6z
		 M35,28.1l-1.4,0.7c-0.8-1.9-1.7-3.5-2.6-5l1.3-0.6C33.2,24.6,34.1,26.3,35,28.1z"/>
	<path id="XMLID_7_" class="st0" d="M38.7,20.6v-3.1h-1.7V16h4.9v1.5h-1.7v3.1h1.5v1.5h-1.5v3.6c0.6-0.2,1.1-0.4,1.6-0.6v1.5
		c-1.4,0.5-3,1-4.6,1.3l-0.4-1.5c0.6-0.1,1.2-0.2,1.9-0.4v-4h-1.5v-1.5H38.7z M43.3,23.2l-1.2-0.8c0.7-0.8,1.2-1.6,1.4-2.5
		c-0.3-0.9-0.6-1.6-1-2.3l1.3-0.5c0.4,0.7,0.7,1.5,1,2.3l-1,0.4l1.1,0.2c-0.1,0.3-0.2,0.6-0.3,0.8h5.7v1.4h-3v1.5h3.8v1.4h-3.8v2.3
		h1.8v-1.6h1.4v3.6h-1.4v-0.6h-5v0.6h-1.4v-3.6H44v1.6h1.8v-2.3h-3.7v-1.4h3.7v-1.5H44C43.8,22.6,43.5,22.9,43.3,23.2z M50.9,15.9
		c-2.1,0.6-4.8,0.9-8.2,0.9l-0.4-1.3c3.2,0,5.8-0.3,8-0.8L50.9,15.9z M47.7,19.2l-1.2,0.5c-0.4-0.9-0.7-1.6-1.1-2.3l1.3-0.5
		C47,17.7,47.3,18.4,47.7,19.2z M50.8,17c-0.3,1.2-0.7,2.3-1.2,3.2l-1.3-0.5c0.4-0.8,0.8-1.8,1.2-3.1L50.8,17z"/>
</g>
</svg>
