<?xml version="1.0" encoding="utf-8"?>
<!-- Generator: Adobe Illustrator 19.0.0, SVG Export Plug-In . SVG Version: 6.00 Build 0)  -->
<svg version="1.1" id="图层_1" xmlns="http://www.w3.org/2000/svg" xmlns:xlink="http://www.w3.org/1999/xlink" x="0px" y="0px"
	 viewBox="0 0 72 44" style="enable-background:new 0 0 72 44;" xml:space="preserve">
<style type="text/css">
	.st0{fill:#FFFFFF;}
</style>
<g id="XMLID_2_">
	<path id="XMLID_3_" class="st0" d="M23.4,24.1c-0.9,2.1-1.9,3.9-3.1,5.5l-1.5-1.1c1.2-1.4,2.3-3.1,3.1-5.1L23.4,24.1z M20.9,14.8
		c0.4,0.1,0.9,0.1,1.4,0.1c4.2,0,7.6-0.4,10.2-1.2l0.8,1.4c-2.8,0.8-6.4,1.2-10.9,1.2c-0.3,1.5-0.5,2.9-0.8,4.2h4.7v-3.3h1.7v3.3
		h6.4v1.7h-6.4v6c0,1.3-0.6,2-1.9,2h-2.4l-0.4-1.7c0.8,0.1,1.5,0.1,2.2,0.1c0.5,0,0.7-0.3,0.7-0.8v-5.6h-6.6
		C20.2,19.5,20.7,17,20.9,14.8z M34.7,28.8L33,29.6c-0.9-2.1-1.9-4-2.9-5.6l1.5-0.7C32.7,25,33.7,26.8,34.7,28.8z"/>
	<path id="XMLID_7_" class="st0" d="M40.6,19.1v7.6c0.5-0.4,0.9-0.9,1.4-1.4l0.4,1.7c-1,1.1-2.1,2-3.3,2.9l-0.6-1.5
		c0.3-0.3,0.4-0.6,0.4-1v-6.6h-2.3v-1.6H40.6z M41.9,16.5l-1.2,1.2c-0.7-0.8-1.7-1.7-2.9-2.7l1.2-1.1C40.2,14.8,41.1,15.6,41.9,16.5
		z M45.6,19.1l-1.3,0.5l1.3,0.3c-0.1,0.3-0.2,0.5-0.3,0.8h6.9v1.5h-3.5v1.4h4.5v1.5h-4.5V28h2.2v-2.2h1.6v4.5h-1.6v-0.8h-6.1v0.8
		h-1.6v-4.5h1.6V28h2.3v-2.8h-4.5v-1.5h4.5v-1.4h-2.4c-0.3,0.5-0.6,1-0.9,1.4l-1.4-0.8c0.8-1,1.4-2,1.7-3.1
		c-0.4-0.9-0.8-1.8-1.2-2.4l1.4-0.6C44.8,17.4,45.2,18.2,45.6,19.1z M52.8,15.1c-2.5,0.7-5.8,1-9.9,1l-0.5-1.5c3.8,0,7-0.3,9.6-0.9
		L52.8,15.1z M49,18.9l-1.4,0.6c-0.4-1-0.8-1.8-1.2-2.6l1.4-0.6C48.2,17.1,48.6,18,49,18.9z M52.8,16.4c-0.4,1.4-0.9,2.6-1.5,3.6
		l-1.5-0.6c0.6-0.9,1-2.1,1.5-3.4L52.8,16.4z"/>
</g>
</svg>
