<?xml version="1.0" encoding="utf-8"?>
<!-- Generator: Adobe Illustrator 19.0.0, SVG Export Plug-In . SVG Version: 6.00 Build 0)  -->
<svg version="1.1" id="图层_1" xmlns="http://www.w3.org/2000/svg" xmlns:xlink="http://www.w3.org/1999/xlink" x="0px" y="0px"
	 viewBox="0 0 72 44" style="enable-background:new 0 0 72 44;" xml:space="preserve">
<style type="text/css">
	.st0{fill:#FFFFFF;}
</style>
<g id="XMLID_2_">
	<path id="XMLID_3_" class="st0" d="M24.8,23.9c-0.8,1.9-1.7,3.5-2.8,4.8l-1.3-1c1.1-1.3,2-2.8,2.8-4.5L24.8,23.9z M22.6,15.6
		c0.4,0.1,0.8,0.1,1.2,0.1c3.7,0,6.7-0.4,9-1.1l0.7,1.3c-2.5,0.7-5.7,1-9.7,1.1c-0.2,1.4-0.5,2.6-0.7,3.7h4.2v-2.9h1.5v2.9h5.7v1.5
		h-5.7v5.4c0,1.2-0.6,1.7-1.6,1.7H25l-0.3-1.5c0.7,0.1,1.3,0.1,2,0.1c0.4,0,0.6-0.3,0.6-0.7v-5h-5.9C22,19.7,22.4,17.5,22.6,15.6z
		 M34.8,28.1l-1.4,0.7c-0.8-1.9-1.7-3.5-2.6-5l1.3-0.6C33,24.6,33.9,26.3,34.8,28.1z"/>
	<path id="XMLID_7_" class="st0" d="M40,19.4v6.7c0.4-0.4,0.8-0.8,1.3-1.3l0.4,1.5c-0.9,1-1.9,1.8-2.9,2.6l-0.6-1.3
		c0.2-0.2,0.4-0.5,0.4-0.8v-5.9h-2v-1.5H40z M41.2,17.1l-1,1c-0.6-0.7-1.5-1.5-2.6-2.4l1.1-1C39.7,15.6,40.5,16.3,41.2,17.1z
		 M44.5,19.4l-1.1,0.5l1.2,0.3c-0.1,0.2-0.2,0.5-0.2,0.7h6.1v1.3h-3.1v1.3h4v1.4h-4v2.5h2v-2h1.4v4h-1.4v-0.7h-5.4v0.7h-1.4v-4h1.4
		v2h2v-2.5h-4v-1.4h4v-1.3h-2.1c-0.3,0.4-0.5,0.8-0.8,1.2l-1.2-0.8c0.7-0.9,1.2-1.8,1.5-2.8c-0.3-0.8-0.7-1.6-1.1-2.2l1.3-0.5
		C43.8,17.9,44.2,18.7,44.5,19.4z M51,15.8c-2.2,0.6-5.1,0.9-8.8,0.9l-0.4-1.3c3.4,0,6.2-0.3,8.5-0.8L51,15.8z M47.5,19.3l-1.2,0.5
		c-0.3-0.9-0.7-1.6-1.1-2.3l1.3-0.5C46.9,17.7,47.2,18.4,47.5,19.3z M50.9,17c-0.4,1.2-0.8,2.3-1.3,3.2l-1.3-0.5
		c0.5-0.8,0.9-1.8,1.3-3L50.9,17z"/>
</g>
</svg>
