<?xml version="1.0" encoding="utf-8"?>
<!-- Generator: Adobe Illustrator 19.0.0, SVG Export Plug-In . SVG Version: 6.00 Build 0)  -->
<svg version="1.1" id="图层_1" xmlns="http://www.w3.org/2000/svg" xmlns:xlink="http://www.w3.org/1999/xlink" x="0px" y="0px"
	 viewBox="0 0 72 44" style="enable-background:new 0 0 72 44;" xml:space="preserve">
<style type="text/css">
	.st0{fill:#FFFFFF;}
</style>
<g id="XMLID_2_">
	<path id="XMLID_3_" class="st0" d="M23.5,16.8v-2.1H25v2.1h2v1.5h-2v2.3h2.2V22H25c0,0.4-0.1,0.7-0.1,1c0.9,0.8,1.7,1.7,2.6,2.7
		L26.6,27c-0.8-1.1-1.5-2-2-2.6c-0.5,2.1-1.3,3.8-2.5,5l-1.1-1c1.4-1.4,2.3-3.6,2.5-6.5h-2.3v-1.5h2.4v-2.3h-2.2v-1.5H23.5z
		 M32.6,29.1c-0.9,0-1.4-0.5-1.4-1.5v-2.9c-0.2,0.6-0.4,1.1-0.7,1.6c-0.8,1.3-2.1,2.4-3.9,3.1l-0.8-1.3c1.8-0.7,3-1.7,3.6-2.8
		c0.6-1.2,1-2.8,1-4.7v-2.9h1.4v2.9c0,1.3-0.2,2.5-0.4,3.5h1.2v3.2c0,0.3,0.1,0.4,0.4,0.4h0.7c0.2,0,0.3-0.1,0.4-0.2
		c0.1-0.2,0.2-0.7,0.2-1.7l1.3,0.4c-0.1,1.4-0.3,2.2-0.5,2.5c-0.3,0.2-0.6,0.4-1.2,0.4H32.6z M34.6,24.1h-1.5v-7.6h-3.9v7.6h-1.5
		v-8.9h6.8V24.1z"/>
	<path id="XMLID_7_" class="st0" d="M45.2,19.5l-4.5,0.7c0.1,0.7,0.2,1.4,0.3,2c0.1,0.6,0.3,1.2,0.4,1.7c0.8-1,1.6-2.1,2.1-3.5
		l1.3,0.7c-0.8,1.8-1.8,3.2-2.9,4.5c0.1,0.3,0.2,0.5,0.4,0.7c0.5,0.9,1.1,1.4,1.5,1.4c0.3,0,0.5-0.8,0.8-2.3l1.3,0.8
		c-0.2,0.8-0.5,1.5-0.8,2.1c-0.4,0.7-0.8,1-1.2,1c-0.8,0-1.5-0.5-2.3-1.6c-0.3-0.4-0.5-0.8-0.7-1.2c-1,0.8-2,1.4-3.2,1.9l-0.9-1.4
		c1.3-0.5,2.4-1.2,3.4-2.1c-0.2-0.6-0.4-1.2-0.6-1.8c-0.2-0.8-0.4-1.7-0.5-2.8l-2,0.3L37,19.3l2-0.3c-0.1-1.3-0.2-2.7-0.2-4.3h1.5
		c0,1.5,0,2.9,0.1,4.1l4.4-0.7L45.2,19.5z M44.2,16.9l-1.3,0.6c-0.5-0.9-1.1-1.7-1.6-2.4l1.2-0.6C43.1,15.3,43.7,16.1,44.2,16.9z
		 M47.8,16v9.9h-1.5V16H47.8z M47.1,29.2l-0.4-1.5c0.8,0.1,1.5,0.1,2.1,0.1c0.4,0,0.7-0.2,0.7-0.7V14.7h1.5v12.9
		c0,1.1-0.6,1.6-1.7,1.6H47.1z"/>
</g>
</svg>
