<?xml version="1.0" encoding="utf-8"?>
<!-- Generator: Adobe Illustrator 19.0.0, SVG Export Plug-In . SVG Version: 6.00 Build 0)  -->
<svg version="1.1" id="图层_1" xmlns="http://www.w3.org/2000/svg" xmlns:xlink="http://www.w3.org/1999/xlink" x="0px" y="0px"
	 viewBox="0 0 72 44" style="enable-background:new 0 0 72 44;" xml:space="preserve">
<style type="text/css">
	.st0{fill:#FFFFFF;}
</style>
<g id="XMLID_2_">
	<path id="XMLID_3_" class="st0" d="M27.3,17.6v-0.8h-6.1v-1.3h6.1v-0.8h1.5v0.8h6.1v1.3h-6.1v0.8h4.7v3.3h-4.7v0.8h5v2.1h1.6V25
		h-1.6v2.1h-5v0.8c0,1-0.5,1.5-1.6,1.5h-2l-0.3-1.4c0.6,0.1,1.2,0.1,1.8,0.1c0.4,0,0.6-0.2,0.6-0.5v-0.5h-5.1v-1.2h5.1V25h-6.6v-1.2
		h6.6v-0.9h-5.1v-1.2h5.1v-0.8h-4.7v-3.3H27.3z M27.3,18.7H24v1h3.2V18.7z M32,18.7h-3.2v1H32V18.7z M28.8,23.8h3.5v-0.9h-3.5V23.8z
		 M28.8,25v0.9h3.5V25H28.8z"/>
	<path id="XMLID_9_" class="st0" d="M41.4,15.2c-0.4,1.3-0.9,2.5-1.6,3.6v10.7h-1.5V21c-0.4,0.6-0.9,1.1-1.4,1.6L36.5,21
		c1.6-1.9,2.8-4,3.6-6.5L41.4,15.2z M44.2,15.9c-0.1,0.7-0.3,1.4-0.4,2h1.9v-3.2h1.5v3.2h3.5v1.5h-3.5v3.4h4.1v1.5h-4.1v5h-1.5v-5
		h-4.5v-1.5h4.5v-3.4h-2.4c-0.4,1-0.9,1.9-1.5,2.8l-1-1.3c0.9-1.4,1.6-3.2,1.9-5.2L44.2,15.9z"/>
</g>
</svg>
