<?xml version="1.0" encoding="utf-8"?>
<!-- Generator: Adobe Illustrator 19.0.0, SVG Export Plug-In . SVG Version: 6.00 Build 0)  -->
<svg version="1.1" id="图层_1" xmlns="http://www.w3.org/2000/svg" xmlns:xlink="http://www.w3.org/1999/xlink" x="0px" y="0px"
	 viewBox="0 0 72 44" style="enable-background:new 0 0 72 44;" xml:space="preserve">
<style type="text/css">
	.st0{fill:#FFFFFF;}
</style>
<g id="XMLID_2_">
	<path id="XMLID_3_" class="st0" d="M27,17.3l-1,0.5h3.3c0.6-0.9,1.1-2,1.5-3.2l1.5,0.4C32,16,31.5,17,31,17.8h3v1.5h-5.2v0.5
		c0,0.8-0.1,1.5-0.2,2.1H35v1.5h-5.6c0.8,1.9,2.8,3.5,6,4.6l-0.9,1.4C31.1,28,29,26.2,28,24c-0.3,0.8-0.6,1.4-1.1,2
		c-1.1,1.4-2.9,2.5-5.3,3.3l-0.8-1.3c2.5-0.8,4.1-1.8,5-3c0.3-0.5,0.6-1,0.8-1.5h-5.5v-1.5H27c0.1-0.7,0.2-1.4,0.3-2.1v-0.5H22v-1.5
		h3.4c-0.5-0.9-1.1-1.7-1.7-2.5l1.4-0.7C25.8,15.5,26.4,16.4,27,17.3z"/>
	<path id="XMLID_5_" class="st0" d="M50.1,15.2v1.5h-5.1v3.9h6.2v1.5h-6.2v5.5c0,1.1-0.6,1.7-1.8,1.7h-2.5l-0.3-1.5
		c0.8,0,1.6,0.1,2.3,0.1c0.5,0,0.8-0.2,0.8-0.7v-5.1h-6.5v-1.5h6.5v-3.9h-5.5v-1.5H50.1z"/>
</g>
</svg>
