<?xml version="1.0" encoding="utf-8"?>
<!-- Generator: Adobe Illustrator 19.0.0, SVG Export Plug-In . SVG Version: 6.00 Build 0)  -->
<svg version="1.1" id="图层_1" xmlns="http://www.w3.org/2000/svg" xmlns:xlink="http://www.w3.org/1999/xlink" x="0px" y="0px"
	 viewBox="0 0 72 44" style="enable-background:new 0 0 72 44;" xml:space="preserve">
<style type="text/css">
	.st0{fill:#FFFFFF;}
</style>
<g id="XMLID_2_">
	<path id="XMLID_3_" class="st0" d="M27,18.4v-1.7h0.6v1.7h1.7V19h-1.7v1.8c0,0.1,0,0.3,0,0.4h1.9v0.6h-1.9c0,0.3-0.1,0.7-0.1,1
		c0.7,0.7,1.4,1.5,2.1,2.4l-0.4,0.5c-0.7-1-1.3-1.7-1.9-2.3c-0.3,1.8-1,3.1-2,4.1l-0.5-0.4c1.2-1.2,1.9-2.9,2.1-5.3H25v-0.6H27
		c0-0.1,0-0.3,0-0.4V19h-1.8v-0.6H27z M32.8,18.8v2.1c0,1.8-0.3,3.2-0.9,4.3c-0.6,1-1.6,1.8-2.9,2.3l-0.3-0.5
		c1.3-0.6,2.3-1.3,2.8-2.3c0.5-1,0.8-2.2,0.8-3.8v-2.1H32.8z M34.8,23.5h-0.6v-5.9h-3.4v5.9h-0.6v-6.5h4.7V23.5z M33.6,27.3
		c-0.6,0-0.9-0.3-0.9-0.9v-2.7h0.6v2.6c0,0.3,0.1,0.5,0.4,0.5h0.7c0.2,0,0.4-0.1,0.5-0.2c0.1-0.2,0.2-0.6,0.3-1.4l0.6,0.2
		c-0.1,0.9-0.2,1.5-0.4,1.8c-0.2,0.2-0.5,0.3-0.8,0.3H33.6z"/>
	<path id="XMLID_8_" class="st0" d="M42.9,19.9l-3.6,0.6c0.1,0.7,0.2,1.4,0.3,2c0.1,0.5,0.3,1,0.4,1.5c0.8-0.8,1.4-1.8,1.9-3
		l0.6,0.3c-0.6,1.4-1.4,2.5-2.3,3.4c0.1,0.4,0.3,0.7,0.5,1c0.5,0.7,0.9,1.1,1.3,1.1c0.2,0,0.5-0.7,0.8-2l0.5,0.4
		c-0.2,0.6-0.3,1.1-0.5,1.6c-0.2,0.5-0.5,0.8-0.8,0.8c-0.5,0-1.1-0.4-1.6-1.1c-0.2-0.3-0.5-0.7-0.6-1.2c-0.8,0.7-1.7,1.3-2.7,1.7
		l-0.4-0.6c1-0.4,2-1,2.8-1.8c-0.2-0.5-0.3-1-0.5-1.5c-0.2-0.7-0.3-1.4-0.4-2.3l-1.7,0.3L37,20.2l1.7-0.3c-0.1-1-0.1-2.1-0.1-3.4
		h0.6c0,1.2,0,2.3,0.1,3.3l3.5-0.6L42.9,19.9z M42.1,18.3l-0.6,0.3c-0.4-0.7-0.8-1.2-1.3-1.8l0.5-0.3C41.2,17,41.7,17.6,42.1,18.3z
		 M44.7,17.6v7.5h-0.6v-7.5H44.7z M44.4,27.3l-0.1-0.6c0.6,0,1.1,0,1.6,0c0.4,0,0.6-0.2,0.6-0.6v-9.6h0.6v9.8c0,0.7-0.3,1-1,1H44.4z
		"/>
</g>
</svg>
