<?xml version="1.0" encoding="utf-8"?>
<!-- Generator: Adobe Illustrator 19.0.0, SVG Export Plug-In . SVG Version: 6.00 Build 0)  -->
<svg version="1.1" id="图层_1" xmlns="http://www.w3.org/2000/svg" xmlns:xlink="http://www.w3.org/1999/xlink" x="0px" y="0px"
	 viewBox="0 0 72 44" style="enable-background:new 0 0 72 44;" xml:space="preserve">
<style type="text/css">
	.st0{fill:#FFFFFF;}
</style>
<g id="XMLID_2_">
	<path id="XMLID_3_" class="st0" d="M29.7,18.7v-0.9h-4.8v-0.6h4.8v-0.8h0.6v0.8h4.8v0.6h-4.8v0.9h3.6V21h-3.6v0.9h3.7v1.6h1.4V24
		h-1.4v1.6h-3.7v0.9c0,0.6-0.3,0.9-1,0.9h-1.5l-0.1-0.6c0.5,0,0.9,0,1.4,0c0.4,0,0.5-0.2,0.5-0.5v-0.8h-4v-0.5h4v-1h-5.1v-0.5h5.1
		v-1.1h-4v-0.5h4V21h-3.5v-2.2H29.7z M29.7,19.3h-2.9v1.2h2.9V19.3z M33.2,19.3h-2.9v1.2h2.9V19.3z M30.3,23.5h3.1v-1.1h-3.1V23.5z
		 M30.3,24v1h3.1v-1H30.3z"/>
	<path id="XMLID_9_" class="st0" d="M39.9,16.8c-0.3,1-0.7,1.9-1.2,2.7v8H38v-7c-0.4,0.6-0.9,1.2-1.4,1.7l-0.2-0.7
		c1.3-1.5,2.3-3.2,2.9-5.1L39.9,16.8z M41.9,17.3c-0.1,0.6-0.3,1.2-0.4,1.8h2v-2.6h0.6v2.6H47v0.6h-2.8v3.1h3.3v0.6h-3.3v3.9h-0.6
		v-3.9h-3.6v-0.6h3.6v-3.1h-2.2c-0.3,0.8-0.7,1.5-1.1,2.1l-0.4-0.5c0.8-1.1,1.3-2.5,1.5-4.2L41.9,17.3z"/>
</g>
</svg>
